<?xml version="1.0" standalone="no"?>
<!DOCTYPE svg PUBLIC "-//W3C//DTD SVG 20010904//EN"
 "http://www.w3.org/TR/2001/REC-SVG-20010904/DTD/svg10.dtd">
<svg version="1.0" xmlns="http://www.w3.org/2000/svg"
 width="1080.000000pt" height="1080.000000pt" viewBox="0 0 1080.000000 1080.000000"
 preserveAspectRatio="xMidYMid meet">
<metadata>
Created by potrace 1.14, written by Peter Selinger 2001-2017
</metadata>
<g transform="translate(0.000000,1080.000000) scale(0.100000,-0.100000)"
fill="#000000" stroke="none">
<path d="M5235 10630 c-158 -27 -225 -55 -490 -208 -99 -58 -196 -114 -215
-125 -19 -10 -71 -40 -115 -65 -44 -25 -88 -52 -97 -60 -10 -8 -18 -12 -18 -8
0 4 -12 -1 -27 -12 -50 -34 -482 -282 -492 -282 -6 0 -11 -4 -11 -9 0 -5 -6
-11 -13 -13 -7 -2 -86 -46 -175 -98 -90 -52 -180 -104 -200 -116 -20 -11 -140
-80 -267 -153 -126 -74 -248 -144 -270 -156 -22 -13 -139 -80 -260 -150 -121
-70 -236 -137 -255 -147 -19 -11 -71 -41 -115 -67 -44 -26 -87 -51 -95 -55 -8
-4 -24 -12 -35 -19 -30 -18 -411 -239 -453 -263 -47 -26 -93 -53 -160 -93 -29
-17 -55 -31 -58 -31 -2 0 -23 -12 -47 -27 -23 -15 -62 -38 -87 -51 -242 -130
-421 -333 -498 -567 -32 -97 -42 -136 -50 -200 -4 -33 -7 -1057 -7 -2275 1
-1706 4 -2230 14 -2280 38 -204 128 -374 275 -523 83 -85 149 -132 316 -228
52 -30 104 -59 115 -66 11 -7 27 -16 35 -20 8 -4 59 -33 113 -65 54 -32 101
-58 105 -58 3 0 13 -6 21 -14 9 -7 41 -27 71 -43 30 -17 71 -39 90 -50 148
-85 501 -290 525 -304 17 -10 41 -24 55 -32 14 -8 70 -40 125 -72 55 -32 116
-66 135 -77 35 -21 325 -188 390 -226 19 -11 58 -33 85 -47 28 -15 57 -33 66
-41 8 -8 18 -14 21 -14 4 0 73 -39 155 -87 81 -47 164 -96 185 -107 101 -58
326 -187 348 -201 33 -20 312 -181 370 -213 25 -14 137 -78 249 -144 112 -65
205 -118 208 -118 2 0 23 -13 46 -28 88 -59 265 -133 352 -147 22 -3 56 -9 75
-12 118 -18 355 2 419 37 12 6 21 9 21 6 0 -5 45 12 110 42 31 14 320 178 395
223 17 11 37 22 45 26 8 3 31 16 50 28 19 12 55 33 80 47 25 14 86 49 135 78
50 29 108 62 130 75 22 12 101 57 175 100 74 43 148 86 165 94 16 9 32 19 35
22 3 3 30 19 60 36 48 26 258 148 300 173 20 13 514 296 570 328 25 14 62 36
82 49 21 12 40 23 43 23 3 0 22 11 43 24 84 53 213 126 222 126 6 0 10 5 10
10 0 6 4 10 9 10 11 0 53 24 521 295 74 43 191 111 260 150 540 311 528 304
630 405 155 153 258 359 287 572 9 64 10 4430 1 4508 -9 81 -25 143 -60 233
-88 228 -252 410 -483 536 -22 12 -62 35 -90 52 -27 16 -59 34 -70 39 -11 6
-29 16 -40 22 -31 21 -94 58 -138 83 -23 12 -157 89 -297 170 -140 81 -273
158 -295 170 -22 13 -107 62 -190 110 -82 48 -168 98 -190 110 -22 12 -80 46
-130 74 -49 29 -108 63 -130 76 -45 25 -32 18 -330 190 -121 70 -238 137 -260
150 -39 22 -185 106 -215 124 -8 5 -111 65 -229 133 -117 68 -230 133 -250
145 -20 13 -43 26 -51 30 -8 3 -67 36 -130 73 -63 37 -189 110 -280 162 -91
52 -208 120 -260 150 -107 61 -141 78 -220 107 -155 56 -321 70 -495 41z"/>
</g>
</svg>
