<svg id="svg" xmlns="http://www.w3.org/2000/svg" xmlns:xlink="http://www.w3.org/1999/xlink" width="400" height="400" viewBox="0, 0, 400,400"><g id="svgg"><path id="path0" d="M195.540 40.582 C 192.358 44.416,193.964 103.103,197.308 105.211 C 199.270 106.447,200.730 106.447,202.692 105.211 C 206.036 103.103,207.642 44.416,204.460 40.582 C 202.202 37.862,197.798 37.862,195.540 40.582 M176.550 67.744 C 123.458 76.682,78.712 120.586,68.598 173.663 L 66.511 184.615 73.089 184.615 L 79.666 184.615 82.142 173.650 C 92.365 128.381,130.645 90.737,175.769 81.577 L 184.615 79.782 184.615 72.968 C 184.615 69.220,184.442 66.235,184.231 66.335 C 184.019 66.434,180.563 67.069,176.550 67.744 M215.385 73.147 L 215.385 79.782 224.231 81.604 C 270.336 91.098,309.103 129.854,318.423 175.769 L 320.218 184.615 326.853 184.615 L 333.489 184.615 331.462 174.231 C 321.014 120.709,279.291 78.986,225.769 68.538 L 215.385 66.511 215.385 73.147 M186.154 120.914 C 160.609 131.979,158.223 167.426,182.032 182.146 C 211.654 200.460,246.606 167.999,230.726 136.923 C 222.722 121.261,202.293 113.924,186.154 120.914 M170.079 192.575 C 152.875 203.970,147.273 216.584,146.437 245.805 C 145.370 283.153,142.929 281.538,200.461 281.538 L 244.852 281.538 249.481 276.909 L 254.110 272.280 253.579 247.294 C 253.122 225.771,252.595 221.322,249.774 215.196 C 243.715 202.034,225.370 185.413,220.950 189.081 C 213.603 195.178,192.580 195.739,181.352 190.137 C 177.322 188.127,176.539 188.296,170.079 192.575 M40.338 195.662 C 37.844 198.156,37.958 202.283,40.582 204.460 C 44.416 207.642,103.103 206.036,105.211 202.692 C 106.447 200.730,106.447 199.270,105.210 197.308 C 103.040 193.864,43.643 192.357,40.338 195.662 M295.723 195.662 C 293.229 198.156,293.343 202.283,295.967 204.460 C 299.800 207.642,358.488 206.036,360.595 202.692 C 361.832 200.730,361.832 199.270,360.595 197.308 C 358.425 193.864,299.028 192.357,295.723 195.662 M68.538 225.769 C 79.036 279.546,120.454 320.964,174.231 331.462 L 184.615 333.489 184.615 326.853 L 184.615 320.218 175.769 318.423 C 129.995 309.131,90.869 270.005,81.577 224.231 L 79.782 215.385 73.147 215.385 L 66.511 215.385 68.538 225.769 M318.415 224.231 C 309.067 270.080,270.022 309.128,224.231 318.423 L 215.385 320.218 215.385 326.853 L 215.385 333.489 225.769 331.462 C 279.291 321.014,321.014 279.291,331.462 225.769 L 333.489 215.385 326.853 215.385 L 320.218 215.385 318.415 224.231 M195.540 295.967 C 192.358 299.800,193.964 358.488,197.308 360.595 C 204.348 365.032,205.352 361.236,205.802 328.493 C 206.234 297.095,205.690 293.846,200.000 293.846 C 198.515 293.846,196.508 294.800,195.540 295.967 " stroke="none" fill="#fff" fill-rule="evenodd"></path></g></svg>