<svg xmlns="http://www.w3.org/2000/svg" xmlns:xlink="http://www.w3.org/1999/xlink" version="1.1" width="256" height="256" viewBox="0 0 256 256" xml:space="preserve">

<defs>
</defs>
<g style="stroke: none; stroke-width: 0; stroke-dasharray: none; stroke-linecap: butt; stroke-linejoin: miter; stroke-miterlimit: 10; fill: rgb(255,255,255); fill-rule: nonzero; opacity: 1;" transform="translate(1.4065934065934016 1.4065934065934016) scale(2.81 2.81)" >
	<path d="M 82.773 73.439 c -1.435 -1.435 -2.339 -3.337 -2.556 -5.452 c -0.206 -1.999 -1.102 -3.882 -2.522 -5.303 l -2.742 -2.742 c -0.55 -0.55 -1.326 -0.85 -2.089 -0.805 c -0.315 0.016 -0.616 0.099 -0.902 0.216 V 45 V 30.647 c 0.286 0.118 0.587 0.2 0.901 0.216 c 0.782 0.037 1.54 -0.254 2.09 -0.805 l 2.742 -2.743 c 1.421 -1.421 2.316 -3.305 2.532 -5.4 c 0.207 -2.018 1.111 -3.92 2.546 -5.354 l 5.501 -5.501 c 0.391 -0.391 0.391 -1.023 0 -1.414 l -9.353 -9.353 c -0.391 -0.391 -1.023 -0.391 -1.414 0 l -4.681 4.68 c -1.183 1.183 -2.664 2.004 -4.282 2.375 c -1.725 0.394 -3.717 0.966 -5.525 2.776 l -7.896 7.896 H 45.02 H 34.876 l -7.896 -7.896 c -1.809 -1.81 -3.801 -2.382 -5.525 -2.776 c -1.619 -0.371 -3.1 -1.192 -4.283 -2.375 l -4.68 -4.68 c -0.391 -0.391 -1.023 -0.391 -1.414 0 L 1.726 9.646 c -0.391 0.391 -0.391 1.023 0 1.414 l 5.5 5.501 c 1.435 1.435 2.339 3.336 2.557 5.451 c 0.206 1.999 1.101 3.882 2.522 5.304 l 2.743 2.743 c 0.55 0.55 1.32 0.843 2.088 0.805 c 0.314 -0.016 0.616 -0.099 0.902 -0.217 V 45 v 14.354 c -0.287 -0.118 -0.588 -0.201 -0.903 -0.216 c -0.76 -0.044 -1.538 0.255 -2.088 0.805 l -2.743 2.742 c -1.421 1.421 -2.316 3.304 -2.522 5.3 c 0 0.001 -0.01 0.099 -0.01 0.1 c -0.208 2.019 -1.112 3.921 -2.546 5.355 l -5.5 5.5 c -0.188 0.188 -0.293 0.441 -0.293 0.707 s 0.105 0.52 0.293 0.707 l 9.353 9.354 C 11.266 89.895 11.521 90 11.786 90 s 0.52 -0.105 0.707 -0.293 l 4.68 -4.68 c 1.183 -1.184 2.664 -2.004 4.283 -2.375 c 1.724 -0.395 3.715 -0.967 5.525 -2.775 l 7.896 -7.896 H 44.98 h 10.144 l 7.895 7.896 c 1.809 1.81 3.801 2.381 5.525 2.775 c 1.619 0.371 3.1 1.191 4.282 2.375 l 4.681 4.68 C 77.703 89.902 77.959 90 78.215 90 s 0.512 -0.098 0.707 -0.293 l 9.353 -9.354 c 0.188 -0.188 0.293 -0.441 0.293 -0.707 s -0.105 -0.52 -0.293 -0.707 L 82.773 73.439 z M 64.434 11.538 c 1.434 -1.434 3.037 -1.893 4.557 -2.241 c 1.986 -0.454 3.802 -1.46 5.251 -2.91 l 3.974 -3.973 l 7.938 7.939 l -4.794 4.794 c -1.759 1.759 -2.867 4.09 -3.132 6.661 c -0.158 1.542 -0.85 2.997 -1.946 4.094 l -2.742 2.742 c -0.154 0.154 -0.378 0.229 -0.575 0.222 c -0.217 -0.011 -0.413 -0.111 -0.553 -0.282 c -0.237 -0.291 -0.181 -0.776 0.126 -1.083 c 0.391 -0.391 0.391 -1.023 0 -1.414 s -1.023 -0.391 -1.414 0 l -0.867 0.867 c 0 0 -0.001 0 -0.001 0.001 l -1.499 1.499 l -2.367 2.367 c -0.074 0.074 -0.163 0.12 -0.248 0.173 c -0.048 0.03 -0.09 0.075 -0.141 0.098 c -0.032 0.015 -0.066 0.014 -0.099 0.026 c -0.399 0.145 -0.84 0.102 -1.141 -0.169 c -0.233 -0.21 -0.366 -0.497 -0.374 -0.808 s 0.108 -0.604 0.329 -0.824 v 0 l 3.502 -3.502 c 0.391 -0.391 0.391 -1.024 0 -1.414 c -0.391 -0.391 -1.023 -0.391 -1.414 0 l -3.5 3.501 c 0 0 -0.001 0.001 -0.001 0.001 c 0 0 0 0 0 0 l -1.236 1.236 c -0.464 0.463 -1.194 0.52 -1.63 0.128 c -0.232 -0.209 -0.365 -0.497 -0.374 -0.808 c -0.008 -0.312 0.109 -0.604 0.329 -0.824 l 0.559 -0.559 l 4.266 -4.265 c 0.391 -0.391 0.391 -1.023 0 -1.414 s -1.023 -0.391 -1.414 0 l -4.266 4.265 c -0.438 0.437 -1.15 0.439 -1.589 0 c -0.219 -0.219 -0.328 -0.507 -0.328 -0.795 c 0 -0.288 0.109 -0.576 0.328 -0.795 l 0.478 -0.478 l 3.787 -3.787 c 0.391 -0.391 0.391 -1.023 0 -1.414 s -1.023 -0.391 -1.414 0 l -3.787 3.787 c -0.242 0.242 -0.582 0.365 -0.925 0.329 c -0.201 -0.019 -0.58 -0.11 -0.85 -0.507 c -0.292 -0.429 -0.204 -1.062 0.241 -1.506 L 64.434 11.538 z M 53.383 20.022 c -0.107 0.222 -0.179 0.455 -0.233 0.691 c -0.013 0.057 -0.024 0.114 -0.034 0.171 c -0.04 0.232 -0.062 0.466 -0.05 0.7 c 0 0.006 -0.001 0.012 0 0.018 c 0.014 0.237 0.065 0.47 0.133 0.699 c 0.017 0.058 0.036 0.113 0.057 0.17 c 0.083 0.227 0.184 0.449 0.324 0.655 c 0.485 0.714 1.227 1.192 2.063 1.34 c -0.119 0.927 0.177 1.898 0.888 2.608 c 0.446 0.446 0.995 0.729 1.571 0.848 c -0.032 0.193 -0.046 0.39 -0.041 0.587 c 0.022 0.865 0.391 1.661 1.035 2.241 c 0.962 0.865 2.342 1.004 3.481 0.445 c 0.173 0.468 0.459 0.891 0.844 1.237 c 0.15 0.135 0.31 0.25 0.478 0.35 c 0.057 0.034 0.117 0.055 0.176 0.085 c 0.114 0.058 0.227 0.117 0.347 0.16 c 0.075 0.027 0.152 0.041 0.229 0.062 c 0.107 0.029 0.214 0.061 0.324 0.078 c 0.084 0.013 0.169 0.016 0.254 0.022 c 0.081 0.006 0.161 0.021 0.242 0.021 c 0.022 0 0.044 -0.006 0.066 -0.007 c 0.123 -0.003 0.245 -0.019 0.368 -0.036 c 0.08 -0.011 0.159 -0.016 0.238 -0.033 c 0.13 -0.028 0.256 -0.072 0.382 -0.115 c 0.07 -0.024 0.141 -0.041 0.209 -0.07 c 0.138 -0.058 0.27 -0.135 0.401 -0.213 c 0.052 -0.031 0.107 -0.054 0.158 -0.088 c 0.179 -0.12 0.35 -0.258 0.509 -0.417 l 2.159 -2.159 V 44 h -6.991 c -0.553 0 -1 0.448 -1 1 v 2.599 c 0 2.205 -1.794 3.999 -4 3.999 c -2.205 0 -3.999 -1.794 -3.999 -3.999 V 45 c 0 -0.552 -0.447 -1 -1 -1 H 46.02 v -5.991 h 1.599 c 3.308 0 5.999 -2.691 5.999 -6 s -2.691 -5.999 -5.999 -5.999 H 46.02 v -5.991 h 7.364 C 53.383 20.02 53.383 20.021 53.383 20.022 z M 44.02 20.019 v 6.991 c 0 0.552 0.448 1 1 1 h 2.599 c 2.205 0 3.999 1.794 3.999 3.999 c 0 2.206 -1.794 4 -3.999 4 H 45.02 c -0.552 0 -1 0.448 -1 1 V 44 h -5.991 v -1.599 c 0 -3.308 -2.691 -6 -6 -6 s -6 2.691 -6 6 V 44 h -5.991 V 30.076 l 2.159 2.159 c 0.158 0.158 0.328 0.295 0.505 0.414 c 0.063 0.043 0.132 0.071 0.197 0.109 c 0.119 0.069 0.236 0.139 0.36 0.192 c 0.079 0.034 0.162 0.054 0.243 0.081 c 0.116 0.039 0.23 0.08 0.349 0.105 c 0.087 0.019 0.174 0.025 0.262 0.036 c 0.115 0.015 0.23 0.031 0.345 0.034 c 0.024 0.001 0.047 0.007 0.071 0.007 c 0.085 0 0.169 -0.015 0.254 -0.022 c 0.08 -0.006 0.159 -0.008 0.239 -0.021 c 0.115 -0.018 0.226 -0.05 0.338 -0.081 c 0.072 -0.02 0.146 -0.034 0.216 -0.059 c 0.121 -0.043 0.237 -0.103 0.353 -0.162 c 0.057 -0.029 0.116 -0.05 0.171 -0.082 c 0.168 -0.1 0.329 -0.215 0.479 -0.35 c 0.384 -0.346 0.67 -0.769 0.843 -1.237 c 1.142 0.558 2.521 0.42 3.481 -0.445 c 0.645 -0.58 1.012 -1.375 1.035 -2.24 c 0.005 -0.198 -0.009 -0.395 -0.041 -0.588 c 0.576 -0.119 1.125 -0.402 1.572 -0.848 c 0.004 -0.004 0.007 -0.01 0.011 -0.014 c 0.159 -0.161 0.295 -0.338 0.414 -0.525 c 0.035 -0.055 0.06 -0.114 0.092 -0.171 c 0.078 -0.141 0.148 -0.285 0.202 -0.436 c 0.025 -0.069 0.043 -0.138 0.063 -0.208 c 0.041 -0.143 0.072 -0.288 0.092 -0.438 c 0.01 -0.078 0.018 -0.154 0.023 -0.233 c 0.004 -0.062 0.018 -0.121 0.018 -0.184 c 0 -0.135 -0.008 -0.269 -0.025 -0.4 c 0.093 -0.016 0.179 -0.052 0.27 -0.076 c 0.113 -0.031 0.228 -0.052 0.336 -0.095 c 0.071 -0.028 0.134 -0.071 0.202 -0.104 c 0.12 -0.058 0.243 -0.11 0.354 -0.183 c 0.033 -0.021 0.06 -0.051 0.093 -0.074 c 0.139 -0.098 0.275 -0.199 0.397 -0.318 c 0.151 -0.147 0.288 -0.311 0.409 -0.489 c 0.14 -0.206 0.24 -0.427 0.323 -0.653 c 0.021 -0.056 0.039 -0.112 0.056 -0.169 c 0.069 -0.229 0.12 -0.462 0.133 -0.699 c 0 0 0 0 0 0 c 0.013 -0.238 -0.011 -0.478 -0.052 -0.715 c -0.01 -0.059 -0.022 -0.117 -0.036 -0.176 c -0.054 -0.234 -0.126 -0.465 -0.233 -0.688 c -0.001 -0.002 -0.001 -0.005 -0.002 -0.007 H 44.02 z M 17.589 28.583 c -0.14 0.171 -0.336 0.271 -0.553 0.282 c -0.223 0.014 -0.421 -0.067 -0.575 -0.221 l -2.743 -2.743 c -1.097 -1.097 -1.788 -2.551 -1.957 -4.19 c -0.254 -2.474 -1.363 -4.806 -3.122 -6.564 l -4.793 -4.794 l 7.939 -7.939 l 3.973 3.973 c 1.45 1.45 3.266 2.456 5.251 2.91 c 1.52 0.348 3.123 0.807 4.557 2.241 l 8.188 8.188 l 0.805 0.805 c 0.41 0.41 0.498 1.042 0.206 1.472 c -0.27 0.397 -0.648 0.488 -0.849 0.507 c -0.347 0.035 -0.684 -0.087 -0.925 -0.329 l -3.787 -3.787 c -0.391 -0.391 -1.023 -0.391 -1.414 0 s -0.391 1.023 0 1.414 l 3.787 3.787 l 0.477 0.478 c 0.109 0.109 0.191 0.236 0.246 0.371 c 0.013 0.031 0.01 0.066 0.019 0.098 c 0.06 0.199 0.061 0.405 0.009 0.606 c -0.012 0.048 -0.01 0.099 -0.029 0.145 c -0.055 0.135 -0.136 0.261 -0.245 0.37 c -0.439 0.438 -1.151 0.438 -1.589 0 v 0 c 0 0 -0.001 -0.001 -0.001 -0.001 l -4.263 -4.264 c -0.391 -0.391 -1.023 -0.391 -1.414 0 s -0.391 1.023 0 1.414 l 4.264 4.264 c 0 0 0.001 0.001 0.001 0.001 l 0.559 0.558 c 0.199 0.199 0.299 0.46 0.314 0.738 c 0.002 0.03 0.016 0.057 0.015 0.087 c -0.008 0.311 -0.141 0.598 -0.374 0.807 c -0.436 0.393 -1.166 0.335 -1.629 -0.127 L 26.7 27.902 l -3.502 -3.502 c -0.391 -0.391 -1.023 -0.391 -1.414 0 s -0.391 1.023 0 1.414 l 3.502 3.502 c 0.22 0.22 0.336 0.513 0.329 0.824 c -0.008 0.311 -0.141 0.598 -0.374 0.808 c -0.436 0.394 -1.166 0.335 -1.629 -0.127 l -3.866 -3.866 c 0 0 -0.001 -0.001 -0.002 -0.001 l -0.867 -0.867 c -0.195 -0.195 -0.451 -0.293 -0.707 -0.293 s -0.512 0.098 -0.707 0.293 c -0.391 0.391 -0.391 1.023 0 1.414 C 17.77 27.808 17.826 28.293 17.589 28.583 z M 25.566 78.463 c -1.434 1.434 -3.038 1.893 -4.557 2.24 c -1.986 0.454 -3.802 1.461 -5.251 2.91 l -3.973 3.973 l -7.939 -7.939 l 4.793 -4.793 c 1.759 -1.759 2.868 -4.09 3.122 -6.562 c 0 -0.001 0.01 -0.099 0.01 -0.1 c 0.159 -1.543 0.85 -2.997 1.947 -4.094 l 2.743 -2.742 c 0.153 -0.154 0.361 -0.224 0.574 -0.222 c 0.217 0.011 0.413 0.111 0.553 0.282 c 0.237 0.29 0.181 0.776 -0.126 1.083 c -0.195 0.195 -0.293 0.451 -0.293 0.707 s 0.098 0.512 0.293 0.707 c 0.391 0.391 1.023 0.391 1.414 0 l 4.735 -4.734 c 0.462 -0.462 1.192 -0.52 1.629 -0.127 c 0.232 0.21 0.365 0.496 0.374 0.808 c 0.008 0.311 -0.109 0.604 -0.329 0.823 l -3.502 3.503 c -0.391 0.391 -0.391 1.023 0 1.414 c 0.195 0.195 0.451 0.293 0.707 0.293 s 0.512 -0.098 0.707 -0.293 l 3.502 -3.503 l 1.236 -1.236 c 0.463 -0.463 1.194 -0.519 1.629 -0.127 c 0.232 0.21 0.365 0.496 0.374 0.807 c 0.004 0.156 -0.023 0.307 -0.079 0.447 c -0.056 0.14 -0.14 0.268 -0.25 0.378 l -0.554 0.554 c -0.001 0.001 -0.003 0.003 -0.005 0.005 l -4.265 4.265 c -0.391 0.391 -0.391 1.023 0 1.414 c 0.195 0.195 0.451 0.293 0.707 0.293 s 0.512 -0.098 0.707 -0.293 l 4.265 -4.265 c 0.219 -0.219 0.507 -0.328 0.794 -0.328 c 0.288 0 0.575 0.109 0.795 0.328 c 0.109 0.109 0.191 0.235 0.245 0.37 c 0.027 0.067 0.028 0.142 0.042 0.214 c 0.033 0.17 0.029 0.341 -0.017 0.509 c -0.011 0.041 -0.009 0.086 -0.025 0.125 c -0.055 0.135 -0.137 0.262 -0.246 0.371 l -0.477 0.478 c 0 0 0 0 0 0 c 0 0 -0.001 0.001 -0.001 0.001 l -3.786 3.786 c -0.391 0.391 -0.391 1.023 0 1.414 c 0.195 0.195 0.451 0.293 0.707 0.293 s 0.512 -0.098 0.707 -0.293 l 3.786 -3.786 c 0 0 0.001 -0.001 0.001 -0.001 c 0.242 -0.242 0.58 -0.355 0.925 -0.33 c 0.201 0.02 0.58 0.11 0.849 0.508 c 0.073 0.107 0.122 0.227 0.148 0.354 c 0.077 0.38 -0.056 0.819 -0.389 1.152 l -0.77 0.771 c 0 0 0 0 0 0 L 25.566 78.463 z M 36.618 69.976 c 0.107 -0.222 0.178 -0.454 0.232 -0.689 c 0.013 -0.058 0.024 -0.115 0.034 -0.173 c 0.04 -0.233 0.062 -0.467 0.05 -0.701 c 0 -0.005 0.001 -0.011 0 -0.016 c -0.014 -0.237 -0.065 -0.47 -0.133 -0.699 c -0.017 -0.058 -0.036 -0.113 -0.057 -0.17 c -0.083 -0.227 -0.184 -0.449 -0.324 -0.655 c -0.363 -0.536 -0.871 -0.939 -1.455 -1.169 c -0.194 -0.077 -0.397 -0.134 -0.606 -0.171 c 0.017 -0.132 0.025 -0.265 0.025 -0.4 c 0 -0.062 -0.014 -0.121 -0.018 -0.182 c -0.005 -0.08 -0.012 -0.157 -0.023 -0.236 c -0.02 -0.148 -0.051 -0.292 -0.091 -0.434 c -0.02 -0.071 -0.039 -0.141 -0.064 -0.211 c -0.055 -0.151 -0.124 -0.294 -0.202 -0.435 c -0.031 -0.057 -0.057 -0.116 -0.092 -0.171 c -0.122 -0.192 -0.261 -0.375 -0.426 -0.54 c -0.446 -0.446 -0.995 -0.729 -1.571 -0.849 c 0.032 -0.193 0.046 -0.39 0.041 -0.588 c -0.023 -0.865 -0.391 -1.66 -1.035 -2.24 c -0.961 -0.865 -2.342 -1.004 -3.482 -0.445 c -0.173 -0.468 -0.459 -0.891 -0.843 -1.236 c -1.235 -1.111 -3.161 -1.025 -4.382 0.199 l -2.159 2.159 V 46 h 6.991 c 0.552 0 1 -0.448 1 -1 v -2.599 c 0 -2.206 1.794 -4 4 -4 s 4 1.794 4 4 V 45 c 0 0.552 0.448 1 1 1 h 6.952 v 5.991 h -1.599 c -3.308 0 -6 2.691 -6 5.999 c 0 3.309 2.691 6 6 6 h 1.599 v 5.991 h -7.364 C 36.617 69.98 36.617 69.978 36.618 69.976 z M 45.98 69.981 V 62.99 c 0 -0.553 -0.448 -1 -1 -1 h -2.599 c -2.206 0 -4 -1.794 -4 -4 c 0 -2.205 1.794 -3.999 4 -3.999 h 2.599 c 0.552 0 1 -0.447 1 -1 V 46 h 5.991 v 1.599 c 0 3.308 2.691 5.999 5.999 5.999 c 3.309 0 6 -2.691 6 -5.999 V 46 h 5.991 v 13.925 l -2.158 -2.159 c -0.612 -0.612 -1.399 -0.94 -2.187 -0.975 c -0.788 -0.036 -1.577 0.22 -2.195 0.776 c -0.385 0.346 -0.671 0.769 -0.844 1.236 c -1.141 -0.558 -2.521 -0.419 -3.481 0.445 c -0.645 0.58 -1.013 1.376 -1.035 2.241 c -0.005 0.198 0.009 0.395 0.041 0.587 c -0.576 0.119 -1.125 0.402 -1.571 0.849 c -0.533 0.533 -0.833 1.212 -0.899 1.91 c -0.022 0.232 -0.018 0.467 0.012 0.699 c -0.837 0.147 -1.579 0.627 -2.063 1.34 c -0.14 0.206 -0.24 0.427 -0.323 0.653 c -0.021 0.056 -0.039 0.112 -0.056 0.169 c -0.137 0.458 -0.163 0.94 -0.08 1.416 c 0.01 0.059 0.022 0.116 0.036 0.174 c 0.055 0.237 0.127 0.471 0.236 0.695 c 0 0 0 0.001 0 0.001 H 45.98 z M 78.215 87.586 l -3.974 -3.973 c -1.448 -1.449 -3.264 -2.456 -5.251 -2.91 c -1.52 -0.348 -3.123 -0.807 -4.557 -2.24 l -8.185 -8.185 c -0.001 -0.001 -0.002 -0.003 -0.003 -0.004 L 55.44 69.47 c -0.409 -0.41 -0.498 -1.042 -0.206 -1.473 c 0.27 -0.396 0.648 -0.487 0.85 -0.507 c 0.137 -0.01 0.268 0.018 0.397 0.051 c 0.039 0.01 0.082 0.009 0.12 0.023 c 0.151 0.056 0.291 0.139 0.408 0.255 l 3.787 3.787 c 0.195 0.195 0.451 0.293 0.707 0.293 s 0.512 -0.098 0.707 -0.293 c 0.391 -0.391 0.391 -1.023 0 -1.414 l -3.786 -3.786 l -0.239 -0.24 l -0.238 -0.239 c -0.084 -0.084 -0.138 -0.186 -0.19 -0.286 c -0.016 -0.03 -0.044 -0.054 -0.057 -0.086 c -0.164 -0.406 -0.082 -0.889 0.246 -1.218 c 0.438 -0.438 1.151 -0.437 1.589 0 l 4.266 4.265 c 0.195 0.195 0.451 0.293 0.707 0.293 s 0.512 -0.098 0.707 -0.293 c 0.391 -0.391 0.391 -1.023 0 -1.414 l -4.266 -4.265 l -0.559 -0.559 c -0.22 -0.22 -0.337 -0.513 -0.329 -0.824 c 0.009 -0.312 0.142 -0.598 0.374 -0.808 c 0.436 -0.393 1.168 -0.335 1.63 0.127 l 1.236 1.236 l 3.502 3.503 c 0.195 0.195 0.451 0.293 0.707 0.293 s 0.512 -0.098 0.707 -0.293 c 0.391 -0.391 0.391 -1.023 0 -1.414 l -3.502 -3.503 c -0.221 -0.221 -0.337 -0.513 -0.329 -0.824 c 0.008 -0.311 0.141 -0.597 0.374 -0.807 c 0.109 -0.098 0.236 -0.168 0.373 -0.211 c 0.269 -0.084 0.574 -0.059 0.851 0.063 c 0.005 0.002 0.011 0.002 0.017 0.004 c 0.14 0.064 0.273 0.155 0.388 0.27 l 3.866 3.866 l 0.868 0.868 c 0.391 0.391 1.023 0.391 1.414 0 c 0.195 -0.195 0.293 -0.451 0.293 -0.707 s -0.098 -0.512 -0.293 -0.707 c -0.307 -0.307 -0.363 -0.793 -0.126 -1.083 c 0.14 -0.171 0.336 -0.271 0.553 -0.282 c 0.215 -0.001 0.422 0.068 0.575 0.222 l 2.742 2.742 c 1.097 1.097 1.788 2.551 1.956 4.19 c 0.255 2.475 1.363 4.806 3.122 6.564 l 4.794 4.793 L 78.215 87.586 z" style="stroke: none; stroke-width: 1; stroke-dasharray: none; stroke-linecap: butt; stroke-linejoin: miter; stroke-miterlimit: 10; fill-rule: nonzero; opacity: 1;" transform=" matrix(1 0 0 1 0 0) " stroke-linecap="round" />
</g>
</svg>