<svg xmlns="http://www.w3.org/2000/svg" xmlns:xlink="http://www.w3.org/1999/xlink" version="1.1" width="256" height="256" viewBox="0 0 256 256" xml:space="preserve">

<defs>
</defs>
<g style="stroke: none; stroke-width: 0; stroke-dasharray: none; stroke-linecap: butt; stroke-linejoin: miter; stroke-miterlimit: 10; fill: rgb(255,255,255); fill-rule: nonzero; opacity: 1;" transform="translate(1.4065934065934016 1.4065934065934016) scale(2.81 2.81)" >
	<path d="M 45 81.299 c -11.787 0 -21.375 -9.589 -21.375 -21.375 c 0 -0.553 0.448 -1 1 -1 s 1 0.447 1 1 c 0 10.684 8.692 19.375 19.375 19.375 c 0.552 0 1 0.447 1 1 S 45.552 81.299 45 81.299 z" style="stroke: none; stroke-width: 1; stroke-dasharray: none; stroke-linecap: butt; stroke-linejoin: miter; stroke-miterlimit: 10; fill-rule: nonzero; opacity: 1;" transform=" matrix(1 0 0 1 0 0) " stroke-linecap="round" />
	<path d="M 65.375 60.924 c -0.553 0 -1 -0.447 -1 -1 c 0 -10.684 -8.691 -19.375 -19.375 -19.375 c -0.552 0 -1 -0.448 -1 -1 s 0.448 -1 1 -1 c 11.786 0 21.375 9.589 21.375 21.375 C 66.375 60.477 65.928 60.924 65.375 60.924 z" style="stroke: none; stroke-width: 1; stroke-dasharray: none; stroke-linecap: butt; stroke-linejoin: miter; stroke-miterlimit: 10; fill-rule: nonzero; opacity: 1;" transform=" matrix(1 0 0 1 0 0) " stroke-linecap="round" />
	<path d="M 65.271 37.727 l 7.611 -25.866 c 0.125 -0.424 -0.044 -0.88 -0.415 -1.121 l -16.3 -10.579 c -0.021 -0.013 -0.047 -0.012 -0.068 -0.024 c -0.082 -0.045 -0.169 -0.073 -0.263 -0.094 c -0.052 -0.012 -0.1 -0.028 -0.153 -0.031 C 55.662 0.011 55.644 0 55.623 0 H 34.378 c -0.022 0 -0.04 0.011 -0.061 0.012 c -0.052 0.003 -0.099 0.019 -0.15 0.03 c -0.094 0.021 -0.182 0.048 -0.264 0.094 c -0.022 0.012 -0.048 0.011 -0.069 0.025 l -16.3 10.579 c -0.371 0.241 -0.54 0.697 -0.415 1.121 l 7.611 25.866 c -6.021 5.503 -9.805 13.416 -9.805 22.197 C 14.924 76.508 28.416 90 45 90 s 30.076 -13.492 30.076 -30.076 C 75.076 51.143 71.292 43.23 65.271 37.727 z M 63.602 36.317 c -4.302 -3.397 -9.548 -5.648 -15.277 -6.281 l 7.887 -27.462 l 14.541 9.438 L 63.602 36.317 z M 43.711 29.881 l -4.26 -14.833 h 11.097 l -4.26 14.833 c -0.428 -0.018 -0.857 -0.033 -1.289 -0.033 C 44.568 29.848 44.139 29.863 43.711 29.881 z M 51.123 13.047 H 38.878 L 35.705 2 h 18.59 L 51.123 13.047 z M 19.248 12.012 L 33.79 2.574 l 7.886 27.462 c -5.729 0.633 -10.974 2.883 -15.277 6.28 L 19.248 12.012 z M 45 88 c -15.481 0 -28.076 -12.595 -28.076 -28.076 c 0 -15.481 12.595 -28.076 28.076 -28.076 s 28.076 12.595 28.076 28.076 C 73.076 75.405 60.481 88 45 88 z" style="stroke: none; stroke-width: 1; stroke-dasharray: none; stroke-linecap: butt; stroke-linejoin: miter; stroke-miterlimit: 10; fill-rule: nonzero; opacity: 1;" transform=" matrix(1 0 0 1 0 0) " stroke-linecap="round" />
	<path d="M 36.908 72.68 c -0.207 0 -0.414 -0.064 -0.588 -0.191 c -0.308 -0.224 -0.462 -0.603 -0.398 -0.978 l 1.457 -8.493 l -6.17 -6.015 c -0.272 -0.266 -0.371 -0.663 -0.253 -1.024 c 0.118 -0.362 0.431 -0.626 0.808 -0.681 l 8.527 -1.239 l 3.814 -7.727 c 0.168 -0.341 0.516 -0.558 0.896 -0.558 l 0 0 c 0.381 0 0.729 0.216 0.897 0.558 l 3.813 7.727 l 8.527 1.239 c 0.377 0.055 0.689 0.318 0.808 0.681 c 0.117 0.361 0.02 0.759 -0.253 1.024 l -6.171 6.015 l 1.457 8.493 c 0.064 0.375 -0.09 0.754 -0.397 0.978 c -0.308 0.226 -0.718 0.255 -1.053 0.076 L 45 68.556 l -7.627 4.009 C 37.227 72.642 37.067 72.68 36.908 72.68 z M 34.055 56.985 l 5.096 4.968 c 0.235 0.229 0.343 0.561 0.288 0.885 l -1.203 7.014 l 6.299 -3.311 c 0.291 -0.154 0.64 -0.154 0.931 0 l 6.299 3.311 l -1.203 -7.014 c -0.056 -0.324 0.052 -0.655 0.287 -0.885 l 5.096 -4.968 l -7.042 -1.023 c -0.326 -0.047 -0.607 -0.252 -0.753 -0.547 L 45 49.034 l -3.15 6.381 c -0.146 0.295 -0.427 0.5 -0.753 0.547 L 34.055 56.985 z" style="stroke: none; stroke-width: 1; stroke-dasharray: none; stroke-linecap: butt; stroke-linejoin: miter; stroke-miterlimit: 10; fill-rule: nonzero; opacity: 1;" transform=" matrix(1 0 0 1 0 0) " stroke-linecap="round" />
</g>
</svg>